<?xml version="1.0" standalone="no"?>
<!DOCTYPE svg PUBLIC "-//W3C//DTD SVG 20010904//EN"
 "http://www.w3.org/TR/2001/REC-SVG-20010904/DTD/svg10.dtd">
<svg version="1.0" xmlns="http://www.w3.org/2000/svg"
 width="200.000000pt" height="200.000000pt" viewBox="0 0 200.000000 200.000000"
 preserveAspectRatio="xMidYMid meet">

<g transform="translate(0.000000,200.000000) scale(0.100000,-0.100000)"
fill="#000000" stroke="none">
<path d="M916 1784 l-148 -145 -20 -72 c-11 -40 -36 -111 -55 -160 -29 -71
-33 -90 -23 -102 20 -24 300 -258 304 -254 2 2 9 69 15 149 7 80 19 192 27
250 18 130 54 473 51 477 -2 1 -70 -63 -151 -143z"/>
<path d="M1107 1883 c-2 -4 -8 -46 -12 -93 -3 -47 -15 -152 -26 -235 -19 -149
-49 -439 -49 -483 0 -22 3 -21 53 18 28 23 112 94 185 158 l133 117 -8 45 c-4
25 -6 87 -4 139 l3 94 -34 -7 c-28 -5 -38 -1 -70 29 -20 20 -53 66 -73 104
-36 68 -89 130 -98 114z"/>
<path d="M283 1483 c8 -15 145 -247 277 -472 123 -207 211 -331 334 -466 l45
-50 1 77 c0 42 7 155 16 249 15 169 15 173 -4 188 -71 57 -273 233 -357 310
-123 114 -167 145 -227 159 -54 14 -91 15 -85 5z"/>
<path d="M237 1454 c-4 -4 -7 -19 -7 -33 0 -14 -10 -46 -21 -70 -18 -41 -19
-51 -8 -117 11 -68 9 -133 -7 -211 -6 -31 -4 -32 62 -66 90 -45 155 -66 257
-82 45 -7 83 -12 84 -11 2 2 -336 578 -346 589 -4 4 -10 4 -14 1z"/>
<path d="M1545 1363 l-129 -23 -51 -48 c-83 -80 -335 -292 -351 -297 -6 -1
-34 -374 -34 -435 l1 -75 70 75 c38 41 121 143 183 226 63 83 143 184 178 225
64 73 274 367 267 373 -2 1 -62 -8 -134 -21z"/>
<path d="M1630 1234 c-57 -82 -145 -198 -195 -259 -121 -145 -117 -138 -59
-130 106 15 418 106 441 129 3 3 -4 17 -15 33 -48 68 -51 141 -10 215 l21 37
-27 31 c-14 17 -26 37 -26 44 0 7 -6 20 -13 31 -13 16 -23 5 -117 -131z"/>
<path d="M1720 893 c-95 -36 -281 -82 -359 -89 l-68 -7 -56 -76 c-30 -42 -85
-108 -121 -148 -36 -39 -66 -73 -66 -75 0 -2 42 0 93 4 50 3 215 10 365 14
165 4 272 11 272 17 0 5 -22 49 -50 97 -27 48 -50 94 -50 101 0 8 27 51 60 97
33 46 60 85 60 88 0 6 -10 4 -80 -23z"/>
<path d="M284 866 c71 -94 59 -146 -55 -242 l-41 -34 34 0 c79 0 416 -51 558
-85 57 -13 105 -23 107 -22 1 2 -43 57 -98 123 -55 65 -114 140 -131 166 -29
45 -34 47 -87 54 -118 13 -196 34 -305 79 -13 6 -7 -6 18 -39z"/>
<path d="M222 510 c29 -25 53 -57 64 -85 l17 -45 54 0 c30 0 70 -7 89 -16 39
-19 89 -78 105 -123 11 -30 13 -31 68 -31 53 0 60 3 112 48 148 126 189 166
177 173 -50 27 -585 119 -691 119 l-42 0 47 -40z"/>
<path d="M1290 469 c-205 -9 -292 -19 -296 -34 -4 -15 236 -182 286 -200 64
-23 74 -20 97 29 l22 44 81 7 c81 7 82 7 157 69 41 33 85 69 97 78 20 17 15
18 -119 16 -77 0 -223 -5 -325 -9z"/>
<path d="M932 288 c5 -119 15 -154 60 -195 30 -28 61 -39 132 -48 57 -7 58 -7
54 16 -3 21 -10 25 -60 30 -113 12 -142 55 -143 206 0 102 0 103 -24 103 l-24
0 5 -112z"/>
</g>
</svg>
