<?xml version="1.0" encoding="UTF-8"?>
<svg width="100" height="100" viewBox="0 0 100 100" fill="none" xmlns="http://www.w3.org/2000/svg">
  <!-- Leaf shape -->
  <path d="M50 10 C20 10 10 40 10 60 C10 75 25 85 50 85 C75 85 90 75 90 60 C90 40 80 10 50 10 Z" fill="#2E7D32" />
  
  <!-- Leaf veins -->
  <path d="M50 10 L50 85" stroke="#1B5E20" stroke-width="2" stroke-opacity="0.6" />
  <path d="M50 30 L30 55" stroke="#1B5E20" stroke-width="1.5" stroke-opacity="0.6" />
  <path d="M50 30 L70 55" stroke="#1B5E20" stroke-width="1.5" stroke-opacity="0.6" />
  <path d="M50 45 L35 65" stroke="#1B5E20" stroke-width="1" stroke-opacity="0.6" />
  <path d="M50 45 L65 65" stroke="#1B5E20" stroke-width="1" stroke-opacity="0.6" />
  
  <!-- Leaf stem -->
  <path d="M50 85 L50 95" stroke="#8B4513" stroke-width="3" />
  
  <!-- Highlight -->
  <path d="M30 40 C35 30 45 25 55 30 C65 35 75 45 75 55" stroke="#FFFFFF" stroke-width="2" stroke-opacity="0.3" fill="none" />
</svg>
